<svg xmlns="http://www.w3.org/2000/svg" viewBox="0 0 52 47"><path d="M43 2a6.88 6.88 0 0 1 7 6.73c0 .79-.48 3.93-6.41 12.12C40.37 17.13 36 11.25 36 8.73A6.88 6.88 0 0 1 43 2m.25 11.09a4 4 0 1 0-4-4 4 4 0 0 0 4 4M12 16a10 10 0 0 1 10 10c0 1.5-.92 6.19-9.17 17.8C8.89 39.17 2 30.06 2 26a10 10 0 0 1 10-10m0 17a7 7 0 1 0-7-7 7 7 0 0 0 7 7M43 0a8.87 8.87 0 0 0-9 8.73C34 13.54 43.74 24 43.75 24c0-.09 8.25-10.45 8.25-15.27A8.87 8.87 0 0 0 43 0zm.25 11.09a2 2 0 1 1 2-2 2 2 0 0 1-2 2zM12 14A12 12 0 0 0 0 26c0 6.62 13 21 13 21 0-.12 11-14.37 11-21a12 12 0 0 0-12-12zm0 17a5 5 0 1 1 5-5 5 5 0 0 1-5 5zm27.89-4c-.63 0-3.81.15-7.89 3a19.91 19.91 0 0 0-7 9l15-12z" fill="#d7569c" data-name="Layer 2"/></svg>