<svg xmlns="http://www.w3.org/2000/svg" xmlns:xlink="http://www.w3.org/1999/xlink" id="icon_phone" width="16" height="16" x="0px" y="0px" viewBox="0 0 16 16"><defs><path id="icon_phone" d="M788.842 18.273l-.906-.947s-1.12-.748-1.812 0c-.693.746-1.813 1.896-1.813 1.896s-1.126.84.907 3.792c2.032 2.953 8.155 9.482 8.155 9.482s1.295 1.16 3.625 0c2.33-1.161 2.719-1.897 2.719-1.897s.62-.963 0-1.896c-.968-1.458-1.813-1.896-1.813-1.896s-1.486-.457-2.718.948c-1.862 2.122-6.344-3.792-6.344-3.792s-.58-1.12 0-1.897c1.175-1.57 1.962-1.35.907-2.844-.698-.987-.907-.949-.907-.949z"/></defs><g><g transform="translate(-784 -17)"><use xlink:href="#icon_phone"/></g></g></svg>
