<svg version="1.1" id="Layer_1" xmlns="http://www.w3.org/2000/svg" xmlns:xlink="http://www.w3.org/1999/xlink" x="0px" y="0px"
	 viewBox="-295 386 20 21" style="enable-background:new -295 386 20 21;" xml:space="preserve"><title>icon_cart</title>
<g>
	<g transform="translate(-1438 -114)">
		<g>
			<path id="_x31_scya" d="M1150.5,516c1.4,0,2.5,1.1,2.5,2.5s-1.1,2.5-2.5,2.5s-2.5-1.1-2.5-2.5S1149.1,516,1150.5,516z
				 M1157.5,516c1.4,0,2.5,1.1,2.5,2.5s-1.1,2.5-2.5,2.5s-2.5-1.1-2.5-2.5S1156.1,516,1157.5,516z M1161.5,504
				c0.8,0,1.5,0.6,1.5,1.4l-2.9,7.2c0,0.8-1.4,1.4-2.2,1.4h-8.4c-0.8,0-1.5-0.6-1.5-1.4l-2-7.2c0-0.2,0.1-0.5,0.2-0.7l-0.7-2.8h-2.4
				v-2h4v0.1l1,3.9H1161.5z"/>
		</g>
	</g>
</g>
</svg>
