<svg xmlns="http://www.w3.org/2000/svg" xmlns:xlink="http://www.w3.org/1999/xlink" width="16" height="16"><defs><path id="a" d="M1208.842 18.274l-.906-.948s-1.12-.747-1.812 0a142.8 142.8 0 0 1-1.813 1.896s-1.126.84.907 3.792c2.032 2.953 8.155 9.482 8.155 9.482s1.295 1.16 3.625 0c2.33-1.161 2.719-1.896 2.719-1.896s.62-.964 0-1.897c-.968-1.457-1.813-1.896-1.813-1.896s-1.486-.456-2.718.948c-1.862 2.122-6.344-3.792-6.344-3.792s-.58-1.12 0-1.897c1.175-1.57 1.962-1.35.907-2.844-.698-.987-.907-.948-.907-.948z"/></defs><use xlink:href="#a" transform="translate(-1204 -17)"/></svg>