<svg xmlns="http://www.w3.org/2000/svg" xmlns:xlink="http://www.w3.org/1999/xlink"><defs><path id="a" d="M40 1510c5.523 0 10 4.477 10 10s-4.477 10-10 10-10-4.477-10-10 4.477-10 10-10zm2.993 4.087a13.095 13.095 0 0 0-1.583-.087c-1.57 0-2.646.995-2.646 2.82v1.572h-1.771v2.134h1.77V1526h2.126v-5.474h1.764l.27-2.134H40.89v-1.363c0-.613.16-1.039 1.014-1.039h1.09z"/><path id="a" d="M419 1533s-10 10-20 10-20-10-30-10c-9.1 0-14 10-26 10-8 0-23-10-23-10"/></defs><symbol id="icon_book" viewBox="0 0 51.5 40"><path d="M37.5 3a15.75 15.75 0 0 0-12 2S21.12 1.94 14 3.5C4.56 5.57 0 .5 0 .5v36s5.1 3.57 14 1A12.75 12.75 0 0 1 25.5 40s5.35-4.92 12-3c8.9 2.57 14-1 14-1V0s-4.56 5.07-14 3zm-13 33.25A12.57 12.57 0 0 0 14 34.5c-8.9 2.57-12 0-12 0L2.5 5S4.56 8.57 14 6.5a16.22 16.22 0 0 1 10.5 1zm25-2.25s-3.1 2.57-12 0c-4.94-1.42-9.15.92-11 2.22V7.4a16.16 16.16 0 0 1 11-1.4c9.44 2.07 12-2 12-2zm-33-13h-6a1 1 0 0 0 0 2h6a1 1 0 0 0 0-2zm27-6h-12a1 1 0 0 0 0 2h12a1 1 0 0 0 0-2zm-37 1a1 1 0 0 0 1 1h12a1 1 0 0 0 0-2h-12a1 1 0 0 0-1 1zm34 5h-6a1 1 0 0 0 0 2h6a1 1 0 0 0 0-2z" fill="#d7569c"/></symbol><symbol id="icon_box" viewBox="0 0 57 42"><path d="M55 0H2a2 2 0 0 0-2 2v8a2 2 0 0 0 2 2h1v28a2 2 0 0 0 2 2h46a2 2 0 0 0 2-2V12h2a2 2 0 0 0 2-2V2a2 2 0 0 0-2-2zM35 2v23s-6-4.12-6-4-8 5-8 5V2zm20 6v2h-4v30H5V10H2V2h17v8H9a1 1 0 0 0 0 2h10v17s10-4.92 10-5 8 5 8 5V12h10a1 1 0 0 0 0-2H37V2h18z" fill="#d7569c" data-name="Layer 2"/></symbol><symbol id="icon_cart" viewBox="-295 386 20 21"><path d="M-287.5 402c1.4 0 2.5 1.1 2.5 2.5s-1.1 2.5-2.5 2.5-2.5-1.1-2.5-2.5 1.1-2.5 2.5-2.5zm7 0c1.4 0 2.5 1.1 2.5 2.5s-1.1 2.5-2.5 2.5-2.5-1.1-2.5-2.5 1.1-2.5 2.5-2.5zm4-12c.8 0 1.5.6 1.5 1.4l-2.9 7.2c0 .8-1.4 1.4-2.2 1.4h-8.4c-.8 0-1.5-.6-1.5-1.4l-2-7.2c0-.2.1-.5.2-.7l-.7-2.8h-2.4v-2h4v.1l1 3.9h13.4z"/></symbol><symbol id="icon_delivery" viewBox="0 0 67 38"><path d="M67 15A10 10 0 0 0 57 5h-7V0H16v8H7l.14 2H18V2h30v26H18v-8H8l-.4-4h25l-2.42 2.41a1 1 0 0 0 1.42 1.42l3.74-3.75a1 1 0 0 0 .5-.25 1 1 0 0 0 .26-.83.93.93 0 0 0-.77-1.08l-3.74-3.75a1 1 0 0 0-1.42 1.42L32.59 14H1a1 1 0 0 0 0 2h6.57L8 22h8v8h8a5 5 0 1 0 8 0h22a5 5 0 1 0 8 0h5zM28 36a3 3 0 1 1 3-3 3 3 0 0 1-3 3zm30 0a3 3 0 1 1 3-3 3 3 0 0 1-3 3zm7-8H50V7h7c4 0 8 4 8 8z" fill="#d7569c" data-name="Layer 2"/></symbol><symbol id="icon_facebook"><use xlink:href="#a" transform="translate(-30 -1510)"/></symbol><symbol id="icon_map" viewBox="0 0 52 47"><path d="M43 2a6.88 6.88 0 0 1 7 6.73c0 .79-.48 3.93-6.41 12.12C40.37 17.13 36 11.25 36 8.73A6.88 6.88 0 0 1 43 2m.25 11.09a4 4 0 1 0-4-4 4 4 0 0 0 4 4M12 16a10 10 0 0 1 10 10c0 1.5-.92 6.19-9.17 17.8C8.89 39.17 2 30.06 2 26a10 10 0 0 1 10-10m0 17a7 7 0 1 0-7-7 7 7 0 0 0 7 7M43 0a8.87 8.87 0 0 0-9 8.73C34 13.54 43.74 24 43.75 24c0-.09 8.25-10.45 8.25-15.27A8.87 8.87 0 0 0 43 0zm.25 11.09a2 2 0 1 1 2-2 2 2 0 0 1-2 2zM12 14A12 12 0 0 0 0 26c0 6.62 13 21 13 21 0-.12 11-14.37 11-21a12 12 0 0 0-12-12zm0 17a5 5 0 1 1 5-5 5 5 0 0 1-5 5zm27.89-4c-.63 0-3.81.15-7.89 3a19.91 19.91 0 0 0-7 9l15-12z" fill="#d7569c" data-name="Layer 2"/></symbol><symbol id="icon_phone" viewBox="0 0 578.106 578.106"><path d="M577.83 456.128c1.225 9.385-1.635 17.545-8.568 24.48l-81.396 80.781c-3.672 4.08-8.465 7.551-14.381 10.404-5.916 2.857-11.729 4.693-17.439 5.508-.408 0-1.635.105-3.676.309-2.037.203-4.689.307-7.953.307-7.754 0-20.301-1.326-37.641-3.979s-38.555-9.182-63.645-19.584c-25.096-10.404-53.553-26.012-85.376-46.818-31.823-20.805-65.688-49.367-101.592-85.68-28.56-28.152-52.224-55.08-70.992-80.783-18.768-25.705-33.864-49.471-45.288-71.299-11.425-21.828-19.993-41.616-25.705-59.364S4.59 177.362 2.55 164.51-.306 141.56.102 134.216c.408-7.344.612-11.424.612-12.24.816-5.712 2.652-11.526 5.508-17.442s6.324-10.71 10.404-14.382L98.022 8.756c5.712-5.712 12.24-8.568 19.584-8.568 5.304 0 9.996 1.53 14.076 4.59s7.548 6.834 10.404 11.322l65.484 124.236c3.672 6.528 4.692 13.668 3.06 21.42-1.632 7.752-5.1 14.28-10.404 19.584l-29.988 29.988c-.816.816-1.53 2.142-2.142 3.978s-.918 3.366-.918 4.59c1.632 8.568 5.304 18.36 11.016 29.376 4.896 9.792 12.444 21.726 22.644 35.802s24.684 30.293 43.452 48.653c18.36 18.77 34.68 33.354 48.96 43.76 14.277 10.4 26.215 18.053 35.803 22.949 9.588 4.896 16.932 7.854 22.031 8.871l7.648 1.531c.816 0 2.145-.307 3.979-.918 1.836-.613 3.162-1.326 3.979-2.143l34.883-35.496c7.348-6.527 15.912-9.791 25.705-9.791 6.938 0 12.443 1.223 16.523 3.672h.611l118.115 69.768c8.571 5.308 13.67 12.038 15.303 20.198z"/></symbol><symbol id="icon_thumbs_down" viewBox="0 0 475.092 475.092"><path d="M442.822 209.562c1.715-6.283 2.57-12.847 2.57-19.702 0-14.655-3.621-28.361-10.852-41.112.567-3.995.855-8.088.855-12.275 0-19.223-5.716-36.162-17.132-50.819v-1.427c.191-26.075-7.946-46.632-24.414-61.669C377.387 7.521 355.831 0 329.186 0h-31.977c-19.985 0-39.02 2.093-57.102 6.28-18.086 4.189-39.304 10.468-63.666 18.842-22.08 7.616-35.211 11.422-39.399 11.422H54.821c-10.088 0-18.702 3.567-25.84 10.704C21.845 54.387 18.276 63 18.276 73.085v182.728c0 10.089 3.566 18.698 10.705 25.837 7.142 7.139 15.752 10.705 25.84 10.705h78.228c6.849 4.572 19.889 19.324 39.113 44.255 11.231 14.661 21.416 26.741 30.551 36.265 3.612 3.997 6.564 10.089 8.848 18.271 2.284 8.186 3.949 16.228 4.998 24.126 1.047 7.898 3.475 16.516 7.281 25.837 3.806 9.329 8.944 17.139 15.415 23.422 7.423 7.043 15.985 10.561 25.697 10.561 15.988 0 30.361-3.087 43.112-9.274 12.754-6.184 22.463-15.845 29.126-28.981 6.663-12.943 9.996-30.646 9.996-53.103 0-17.702-4.568-35.974-13.702-54.819h50.244c19.801 0 36.925-7.23 51.394-21.7 14.469-14.462 21.693-31.497 21.693-51.103-.006-16.947-4.665-32.46-13.993-46.55zM85.942 104.219c-3.616 3.615-7.898 5.424-12.847 5.424-4.95 0-9.233-1.805-12.85-5.424-3.615-3.621-5.424-7.898-5.424-12.851 0-4.948 1.809-9.231 5.424-12.847 3.621-3.617 7.9-5.424 12.85-5.424 4.949 0 9.231 1.807 12.847 5.424 3.617 3.616 5.426 7.898 5.426 12.847s-1.808 9.23-5.426 12.851zm323.193 177.158c-7.42 7.33-15.886 10.992-25.413 10.992H283.227c0 11.04 4.564 26.217 13.698 45.535 9.138 19.321 13.71 34.598 13.71 45.829 0 18.647-3.046 32.449-9.134 41.395-6.092 8.949-18.274 13.422-36.546 13.422-4.951-4.948-8.572-13.045-10.854-24.276-2.276-11.225-5.185-23.168-8.706-35.83-3.519-12.655-9.18-23.079-16.984-31.266-4.184-4.373-11.516-13.038-21.982-25.98-.761-.951-2.952-3.806-6.567-8.562a1125.541 1125.541 0 0 0-8.992-11.703c-2.38-3.046-5.664-7.091-9.851-12.136-4.189-5.044-7.995-9.232-11.422-12.565a300.772 300.772 0 0 0-10.992-10.137c-3.901-3.426-7.71-5.996-11.421-7.707-3.711-1.711-7.089-2.566-10.135-2.566h-9.136V73.092h9.136c2.474 0 5.47-.282 8.993-.854 3.518-.571 6.658-1.192 9.419-1.858 2.76-.666 6.377-1.713 10.849-3.14 4.476-1.425 7.804-2.522 9.994-3.283 2.19-.763 5.568-1.951 10.138-3.571 4.57-1.615 7.33-2.613 8.28-2.996 40.159-13.894 72.708-20.839 97.648-20.839h36.542c16.563 0 29.506 3.899 38.828 11.704 9.328 7.804 13.989 19.795 13.989 35.975 0 4.949-.479 10.279-1.423 15.987 5.708 3.046 10.231 8.042 13.559 14.987 3.333 6.945 4.996 13.944 4.996 20.985 0 7.039-1.711 13.61-5.141 19.701 10.089 9.517 15.126 20.839 15.126 33.974 0 4.759-.948 10.039-2.847 15.846-1.899 5.808-4.285 10.327-7.139 13.562 6.091.192 11.184 4.665 15.276 13.422 4.093 8.754 6.14 16.468 6.14 23.127.001 9.704-3.715 18.222-11.141 25.556z"/></symbol><symbol id="icon_thumbs_up" viewBox="0 0 475.099 475.099"><path d="M442.829 265.532c9.328-14.089 13.986-29.598 13.986-46.538 0-19.607-7.225-36.637-21.687-51.117-14.469-14.465-31.601-21.696-51.394-21.696h-50.251c9.134-18.842 13.709-37.117 13.709-54.816 0-22.271-3.34-39.971-9.996-53.105-6.663-13.138-16.372-22.795-29.126-28.984C295.313 3.09 280.947 0 264.959 0c-9.712 0-18.274 3.521-25.697 10.566-8.183 7.993-14.084 18.274-17.699 30.837-3.617 12.559-6.521 24.6-8.708 36.116-2.187 11.515-5.569 19.652-10.135 24.41-9.329 10.088-19.511 22.273-30.551 36.547-19.224 24.932-32.264 39.685-39.113 44.255H54.828c-10.088 0-18.702 3.574-25.84 10.706-7.135 7.139-10.705 15.752-10.705 25.841v182.723c0 10.089 3.566 18.699 10.705 25.838 7.142 7.139 15.752 10.711 25.84 10.711h82.221c4.188 0 17.319 3.806 39.399 11.42 23.413 8.186 44.017 14.418 61.812 18.702a230.392 230.392 0 0 0 54.106 6.427h36.829c26.836 0 48.438-7.666 64.809-22.99 16.365-15.324 24.458-36.213 24.27-62.67 11.42-14.657 17.129-31.597 17.129-50.819 0-4.185-.281-8.277-.855-12.278 7.23-12.748 10.854-26.453 10.854-41.11-.003-6.853-.858-13.423-2.573-19.7zM85.949 396.58c-3.616 3.614-7.898 5.428-12.847 5.428-4.95 0-9.233-1.813-12.85-5.428-3.615-3.613-5.424-7.897-5.424-12.85 0-4.948 1.805-9.229 5.424-12.847 3.621-3.617 7.9-5.425 12.85-5.425 4.949 0 9.231 1.808 12.847 5.425 3.617 3.617 5.426 7.898 5.426 12.847 0 4.953-1.809 9.237-5.426 12.85zm328.196-154.161c-4.093 8.754-9.186 13.227-15.276 13.415 2.854 3.237 5.235 7.762 7.139 13.562 1.902 5.807 2.847 11.087 2.847 15.848 0 13.127-5.037 24.455-15.126 33.969 3.43 6.088 5.141 12.658 5.141 19.697 0 7.043-1.663 14.038-4.996 20.984-3.327 6.94-7.851 11.938-13.559 14.982.951 5.709 1.423 11.04 1.423 15.988 0 31.785-18.274 47.678-54.823 47.678h-34.536c-24.94 0-57.483-6.943-97.648-20.841-.953-.38-3.709-1.383-8.28-2.998s-7.948-2.806-10.138-3.565c-2.19-.767-5.518-1.861-9.994-3.285-4.475-1.431-8.087-2.479-10.849-3.142-2.758-.664-5.901-1.283-9.419-1.855-3.52-.571-6.519-.855-8.993-.855h-9.136V219.285h9.136c3.045 0 6.423-.859 10.135-2.568 3.711-1.714 7.52-4.283 11.421-7.71a294.593 294.593 0 0 0 10.992-10.138c3.427-3.33 7.233-7.517 11.422-12.559 4.187-5.046 7.47-9.089 9.851-12.135a1179.86 1179.86 0 0 0 8.992-11.707c3.615-4.757 5.806-7.613 6.567-8.566 10.467-12.941 17.795-21.601 21.982-25.981 7.804-8.182 13.466-18.603 16.987-31.261 3.525-12.66 6.427-24.604 8.703-35.832 2.282-11.229 5.903-19.321 10.858-24.27 18.268 0 30.453 4.471 36.542 13.418 6.088 8.945 9.134 22.746 9.134 41.399 0 11.229-4.572 26.503-13.71 45.821-9.134 19.32-13.698 34.5-13.698 45.539h100.495c9.527 0 17.993 3.662 25.413 10.994 7.426 7.327 11.143 15.843 11.143 25.553-.003 6.661-2.05 14.371-6.142 23.137z"/></symbol><symbol id="icon_vk" viewBox="0 0 97.75 97.75"><path d="M48.875 0C21.883 0 0 21.882 0 48.875S21.883 97.75 48.875 97.75 97.75 75.868 97.75 48.875 75.867 0 48.875 0zm24.792 54.161c2.278 2.225 4.688 4.319 6.733 6.774.906 1.086 1.76 2.209 2.41 3.472.928 1.801.09 3.776-1.522 3.883l-10.013-.002c-2.586.214-4.644-.829-6.379-2.597-1.385-1.409-2.67-2.914-4.004-4.371-.545-.598-1.119-1.161-1.803-1.604-1.365-.888-2.551-.616-3.333.81-.797 1.451-.979 3.059-1.055 4.674-.109 2.361-.821 2.978-3.19 3.089-5.062.237-9.865-.531-14.329-3.083-3.938-2.251-6.986-5.428-9.642-9.025-5.172-7.012-9.133-14.708-12.692-22.625-.801-1.783-.215-2.737 1.752-2.774 3.268-.063 6.536-.055 9.804-.003 1.33.021 2.21.782 2.721 2.037 1.766 4.345 3.931 8.479 6.644 12.313.723 1.021 1.461 2.039 2.512 2.76 1.16.796 2.044.533 2.591-.762.35-.823.501-1.703.577-2.585.26-3.021.291-6.041-.159-9.05-.28-1.883-1.339-3.099-3.216-3.455-.956-.181-.816-.535-.351-1.081.807-.944 1.563-1.528 3.074-1.528l11.313-.002c1.783.35 2.183 1.15 2.425 2.946l.01 12.572c-.021.695.349 2.755 1.597 3.21 1 .33 1.66-.472 2.258-1.105 2.713-2.879 4.646-6.277 6.377-9.794.764-1.551 1.423-3.156 2.063-4.764.476-1.189 1.216-1.774 2.558-1.754l10.894.013c.321 0 .647.003.965.058 1.836.314 2.339 1.104 1.771 2.895-.894 2.814-2.631 5.158-4.329 7.508-1.82 2.516-3.761 4.944-5.563 7.471-1.656 2.31-1.525 3.473.531 5.479z"/></symbol><symbol id="shape" viewBox="-255 391 101 12"><g transform="translate(-574 -1141)"><clipPath id="b"><use xlink:href="#a" overflow="visible"/></clipPath><g clip-path="url(#b)"><path d="M419 1533s-10 10-20 10-20-10-30-10c-9.1 0-14 10-26 10-8 0-23-10-23-10" fill="none" stroke="#fff" stroke-width="2" stroke-miterlimit="10"/></g><use xlink:href="#a" overflow="visible" fill="none" stroke="#fff" stroke-width="2" stroke-miterlimit="10"/></g></symbol></svg>